<?xml version="1.0" encoding="utf-8"?>
<svg viewBox="15.57 20.932 159.236 155.3" xmlns="http://www.w3.org/2000/svg" xmlns:xlink="http://www.w3.org/1999/xlink">
  <defs>
    <linearGradient id="linearGradient1149" x1="92.435013" y1="171.37401" x2="97.782494" y2="3.3103428" gradientUnits="userSpaceOnUse" gradientTransform="translate(3.0557029,6.6206897)" xlink:href="#linearGradient1147"/>
    <linearGradient id="linearGradient1147">
      <stop style="stop-color:#000000;stop-opacity:1;" offset="1" id="stop1143"/>
      <stop style="stop-color:#000000;stop-opacity:0;" offset="1" id="stop1145"/>
    </linearGradient>
  </defs>
  <path style="fill:url(#linearGradient1149);fill-opacity:1;stroke-width:0.16" d="m 94.807146,176.08293 c -0.0653,-0.10571 -0.14091,-0.38229 -0.16796,-0.61464 -0.0271,-0.23235 -0.44438,-1.248 -0.92739,-2.25699 -1.22235,-2.55346 -3.09371,-8.70517 -3.52707,-11.59453 l -0.19198,-1.28 -0.26707,1.2 c -0.66845,3.00352 -0.74978,8.64946 -0.17211,11.94733 0.33795,1.92928 0.22002,2.45267 -0.55261,2.45267 -0.92157,0 -2.03826,-1.5547 -2.74992,-3.82854 -0.67583,-2.15935 -0.91519,-4.12407 -1.27815,-10.49146 -0.0953,-1.672 -0.18767,-3.14108 -0.20524,-3.26461 -0.0176,-0.12354 -0.40467,0.27681 -0.86022,0.88965 -0.45555,0.61285 -1.17555,1.50101 -1.6,1.97369 -1.77767,1.97968 -4.78098,3.87994 -6.17614,3.90779 -0.6064,0.0121 -0.68039,-0.0276 -0.72249,-0.38794 -0.0362,-0.30961 0.0736,-0.47225 0.48,-0.71106 1.30172,-0.76493 3.16917,-2.88082 4.18235,-4.73875 1.3838,-2.53754 3.23421,-7.86017 3.69508,-10.62877 0.0586,-0.352 0.14798,-0.784 0.19864,-0.96 0.0566,-0.19651 -0.3147,0.0686 -0.96206,0.68708 -2.07764,1.98486 -5.48804,3.18643 -9.5026,3.348 -2.38189,0.0959 -2.7645,0.0142 -2.7645,-0.58987 0,-0.46403 0.52202,-0.78662 2.17499,-1.34405 3.43623,-1.1588 5.90968,-2.84381 8.3184,-5.66682 2.81952,-3.30445 3.82633,-5.85046 3.80986,-9.63434 -0.0165,-3.79542 -1.39678,-6.85111 -3.95278,-8.75086 -1.24596,-0.92606 -3.50201,-2.00893 -5.09209,-2.44412 -1.94301,-0.53178 -5.27437,-0.96571 -8.21838,-1.0705 -3.0319,-0.10792 -3.5009,-0.044 -7.85582,1.07007 -1.40908,0.36048 -3.176,0.68915 -4.24,0.78869 -1.0033,0.0939 -2.01082,0.21198 -2.23893,0.26251 -0.4058,0.0899 -0.94525,-0.24525 -0.94525,-0.58722 0,-0.23141 0.51203,-0.65798 1.52274,-1.26857 1.80477,-1.09031 2.77453,-3.38582 2.59509,-6.1428 -0.192,-2.94986 -1.59422,-4.67842 -2.97289,-3.66478 -0.23372,0.17184 -0.96494,1.21308 -1.62494,2.31387 -1.3971,2.33017 -2.91307,4.44613 -3.78547,5.28369 -0.83329,0.8 -2.28018,1.64591 -3.52225,2.05924 -0.81601,0.27156 -1.31733,0.33058 -2.43272,0.28641 -1.27042,-0.0503 -1.5341,-0.11968 -2.75485,-0.72486 -0.74247,-0.36807 -1.84809,-1.08807 -2.45693,-1.6 -2.83723,-2.38561 -8.04748,-9.70132 -7.51709,-10.55474 0.45461,-0.73148 0.84877,-0.64904 3.02931,0.63363 2.59825,1.52838 6.03231,1.11654 9.94269,-1.19241 2.55249,-1.50716 3.81778,-3.10274 4.23038,-5.3347 0.23231,-1.25672 -0.13257,-2.52104 -0.85933,-2.97762 -0.83612,-0.52528 -1.73001,-0.34714 -4.08038,0.81319 -3.22884,1.594 -4.46623,1.92187 -7.25317,1.92187 -3.83934,0 -6.78877,-0.89939 -9.04749,-2.75891 -1.72289,-1.41839 -4.13976,-4.712211 -6.60465,-9.001086 -1.64212,-2.857274 -1.81181,-3.319694 -1.31562,-3.585246 0.17959,-0.09611 0.36429,-0.174754 0.41045,-0.174754 0.0462,0 0.60819,0.439106 1.24897,0.975789 1.44872,1.213379 2.1631,1.629365 3.49338,2.034221 3.01386,0.917228 7.3207,0.788508 9.41805,-0.281482 0.75005,-0.382648 1.45693,-1.188891 1.45612,-1.660805 -10e-4,-0.848553 -1.26599,-2.029859 -2.9067,-2.715389 -1.02288,-0.42739 -5.4251,-2.99432 -7.37144,-4.298289 -6.10462,-4.089832 -8.05028,-8.369898 -7.73435,-17.014045 0.18919,-5.176739 0.60617,-8.259323 2.31732,-17.131427 1.22692,-6.361445 1.52052,-8.101752 2.00904,-11.908573 0.22021,-1.716 0.66057,-4.992 0.97858,-7.28 0.34669,-2.4944 0.58819,-4.896707 0.60317,-6 0.0231,-1.702294 0.0481,-1.84 0.3337,-1.84 0.24883,0 0.42103,0.327226 0.88762,1.68673 0.64364,1.875342 1.33231,3.188374 2.83478,5.404873 3.39475,5.008032 9.81409,12.286336 14.79572,16.77552 3.61494,3.257592 6.48821,5.30296 9.57316,6.814763 2.52725,1.238501 3.47304,2.102757 4.39383,4.015095 1.13662,2.360553 3.38607,8.860024 5.21328,15.063019 0.68463,2.324179 1.88308,5.261891 2.72416,6.677646 0.8918,1.501119 2.96061,3.637541 4.37646,4.5195 3.57404,2.226321 10.38977,4.333166 15.05381,4.653355 l 1.60154,0.109947 1.04558,-1.108366 c 2.55886,-2.71253 3.73396,-5.287474 4.91595,-10.772082 0.40519,-1.88015 0.43067,-2.242226 0.42507,-6.042154 l -0.006,-4.042153 -0.79186,-0.816335 c -0.77024,-0.794032 -2.09652,-1.574633 -2.68076,-1.577795 -0.15889,-8e-4 -0.75379,0.463344 -1.32201,1.031565 -1.49383,1.493822 -2.18911,1.547965 -3.39958,0.264736 -0.60367,-0.639947 -1.52321,-2.686011 -1.53726,-3.420538 l -0.0123,-0.640648 1.04,-0.01834 c 2.54179,-0.04482 5.96616,-2.653985 7.03196,-5.357933 0.4195,-1.064286 0.28437,-1.675265 -0.64317,-2.908124 -0.36095,-0.479756 -0.90714,-1.366516 -1.21376,-1.970578 -0.57702,-1.136792 -1.23959,-3.382678 -1.10297,-3.738709 0.14945,-0.389451 0.65114,-0.186216 1.08344,0.438901 0.5443,0.787064 1.09628,0.950693 1.84566,0.547125 0.30412,-0.163776 1.81561,-1.614602 3.35887,-3.224058 3.14962,-3.284697 4.46395,-4.369456 6.43997,-5.315102 2.418554,-1.157423 4.289494,-1.346037 6.159994,-0.621 1.01044,0.391662 5.30995,3.266008 5.64091,3.771109 0.48798,0.744758 -0.0165,1.130844 -5.16091,3.949806 -3.02842,1.659474 -4.523654,2.624266 -5.559994,3.587574 -0.66513,0.61825 -0.76,0.787282 -0.76,1.354029 0,1.383611 1.3366,3.056551 3.678744,4.604455 1.19416,0.789211 2.08216,1.128268 3.60001,1.374558 0.58344,0.09467 0.81363,0.208139 0.85391,0.420931 0.0937,0.494925 -0.74652,1.491202 -2.39303,2.837467 -2.64379,2.161698 -2.79521,2.471853 -2.97158,6.086815 -0.27072,5.548584 -0.0224,8.283041 1.13262,12.473923 0.9347,3.391342 2.10284,5.540656 4.16993,7.672392 1.22604,1.264389 1.13269,1.240237 3.68939,0.954547 3.64462,-0.407256 8.3851,-1.777368 11.85313,-3.425845 2.87651,-1.367304 4.49636,-2.669576 5.96731,-4.79738 1.4721,-2.129464 2.32183,-4.282205 4.42609,-11.213242 1.29728,-4.273021 3.06884,-9.249758 3.98682,-11.2 0.96727,-2.054952 1.87794,-2.871315 4.96665,-4.452333 2.45401,-1.256128 5.67712,-3.510257 8.16,-5.706811 3.75151,-3.318878 9.35637,-9.305699 12.74872,-13.617539 3.34439,-4.250877 5.02804,-6.980373 5.81261,-9.423317 0.49346,-1.53647 0.76171,-1.941033 1.07754,-1.625014 0.13883,0.138929 0.18624,0.632394 0.15305,1.593142 -0.0325,0.941982 0.13684,2.76235 0.52399,5.631872 0.31464,2.332 0.78734,5.896 1.05046,7.92 0.45551,3.503947 1.10819,7.417818 1.76098,10.56 0.66934,3.221782 1.78096,9.601056 2.10501,12.08 0.28251,2.161182 0.34715,3.496069 0.35638,7.36 0.0106,4.392317 -0.0138,4.818194 -0.34915,6.134386 -1.10883,4.351403 -2.98528,6.927462 -7.04658,9.673804 -2.18038,1.474423 -5.20982,3.256234 -7.43349,4.372127 -1.7201,0.863184 -2.72694,1.666537 -2.97288,2.372048 -0.36663,1.051709 0.78981,2.074184 3.02882,2.677963 1.36808,0.368922 5.0101,0.364139 6.70454,-0.0088 1.56367,-0.344158 3.22173,-1.168117 4.32,-2.146778 1.03514,-0.922401 1.48852,-1.187484 1.81604,-1.061801 0.62532,0.239961 0.5182,0.547621 -1.30464,3.747056 -2.1153,3.712699 -4.67532,7.254606 -6.29796,8.713492 -2.34178,2.10547 -5.71603,3.09584 -9.94712,2.91957 -2.62918,-0.10953 -3.43743,-0.33117 -6.34632,-1.74028 -2.81568,-1.36397 -3.65112,-1.52569 -4.44235,-0.85992 -1.43137,1.20442 -0.8991,4.47653 1.04353,6.41502 1.36453,1.36164 3.51134,2.6106 5.81116,3.38079 1.1528,0.38606 1.60214,0.45132 3.10766,0.45132 1.90596,0 2.02965,-0.0397 4.75305,-1.52727 1.03052,-0.56287 1.50663,-0.52879 1.66933,0.11949 0.13836,0.55127 -0.45748,1.74286 -1.98403,3.96778 -2.49688,3.63914 -5.23955,6.62304 -7.09761,7.72188 -1.57436,0.93105 -2.5895,1.20045 -4.22074,1.12013 -3.5469,-0.17466 -6.04292,-2.26751 -9.13047,-7.65568 -1.12428,-1.962 -1.7036,-2.58633 -2.39988,-2.58633 -1.41821,0 -2.53356,2.87256 -2.15952,5.56181 0.33555,2.41256 1.21666,3.80784 3.13106,4.9582 0.84751,0.50926 1.07848,0.99511 0.64435,1.3554 -0.19651,0.16309 -0.44598,0.17004 -1.16772,0.0325 -0.5048,-0.0962 -1.49382,-0.21796 -2.19782,-0.27061 -0.704,-0.0526 -2.72,-0.45859 -4.48,-0.9021 -2.83142,-0.71349 -3.44879,-0.81559 -5.36,-0.88644 -4.5287,-0.16788 -10.18377,0.7869 -12.96307,2.18864 -1.99121,1.00426 -3.97619,2.85672 -4.79128,4.47141 -0.96036,1.90246 -1.20572,3.06143 -1.20487,5.69119 6.4e-4,2.02949 0.0578,2.5976 0.37028,3.68 0.70045,2.42638 1.89299,4.32203 4.26343,6.77714 2.38455,2.46972 4.26485,3.70744 6.96551,4.58509 2.38787,0.77601 2.91904,1.16689 2.5423,1.87084 -0.16905,0.31588 -0.27267,0.32624 -2.43942,0.24404 -4.23471,-0.16066 -7.46463,-1.24971 -9.69648,-3.26941 -0.53152,-0.481 -0.9664,-0.79222 -0.9664,-0.6916 0,0.43498 0.81653,3.73694 1.28685,5.2039 1.78832,5.57783 3.63063,8.71591 6.26856,10.67749 0.82739,0.61526 1.08785,0.89998 1.0521,1.1501 -0.10641,0.74452 -1.58932,0.40213 -3.71803,-0.85846 -1.26522,-0.74925 -3.44553,-2.84922 -4.72948,-4.5552 l -1.04,-1.38185 -0.0414,1.16396 c -0.0882,2.4781 -0.52654,8.67574 -0.69116,9.77199 -0.25867,1.72255 -0.75257,3.56215 -1.25226,4.66418 -0.54622,1.20467 -1.56831,2.32779 -2.11838,2.32779 -0.85673,0 -0.93064,-0.46613 -0.51898,-3.27318 0.34438,-2.34836 0.24054,-8.5908 -0.17805,-10.70316 -0.1842,-0.92958 -0.32778,-1.34199 -0.41775,-1.2 -0.0754,0.11899 -0.1382,0.43612 -0.13954,0.70474 -0.008,1.5477 -2.389814,9.4048 -3.611254,11.9116 -0.40734,0.836 -0.78962,1.808 -0.8495,2.16 -0.0916,0.53835 -0.17579,0.64781 -0.53018,0.68917 -0.23172,0.027 -0.47475,-0.0373 -0.54008,-0.14301 z" id="path123"/>
</svg>